<?xml version="1.0" standalone="no"?>
<!DOCTYPE svg PUBLIC "-//W3C//DTD SVG 20010904//EN"
        "http://www.w3.org/TR/2001/REC-SVG-20010904/DTD/svg10.dtd">
<svg version="1.0" xmlns="http://www.w3.org/2000/svg"
     width="60.000000pt" height="70.000000pt" viewBox="0 0 1280.000000 1027.000000"
     preserveAspectRatio="xMidYMid meet">
    <metadata>
        Created by potrace 1.15, written by Peter Selinger 2001-2017
    </metadata>
    <g transform="translate(0.000000,1027.000000) scale(0.100000,-0.100000)"
       fill="#9e9e9e" stroke="none">
        <path d="M7109 10260 c-67 -20 -155 -106 -243 -240 -58 -86 -69 -109 -332
-677 -307 -665 -430 -896 -617 -1157 -131 -183 -239 -307 -407 -467 -178 -169
-212 -217 -190 -268 15 -37 61 -78 96 -87 42 -11 81 15 174 113 136 144 241
306 445 688 311 582 617 1137 703 1275 141 226 254 381 336 456 43 41 83 74
87 74 30 0 141 -275 234 -580 31 -102 68 -204 81 -227 31 -53 82 -96 163 -135
59 -28 71 -30 135 -25 39 3 98 14 130 25 l60 20 67 -41 c108 -67 222 -162 369
-307 200 -199 334 -387 509 -717 97 -184 121 -238 151 -344 l19 -68 -37 -7
c-56 -10 -124 -50 -150 -89 -52 -76 -49 -170 13 -343 19 -53 35 -98 35 -99 0
0 -24 8 -52 19 -80 31 -153 46 -263 53 -187 13 -278 -21 -418 -155 l-89 -85
-102 0 c-55 1 -180 5 -277 9 -170 9 -178 8 -222 -13 -91 -44 -146 -122 -233
-329 -24 -57 -65 -136 -91 -175 -54 -83 -189 -219 -242 -247 -79 -40 -241 -53
-293 -22 -16 9 -51 49 -78 89 -43 65 -65 114 -155 351 -35 93 -92 179 -175
263 -106 107 -199 139 -400 139 -69 -1 -189 -9 -267 -18 l-142 -18 -36 49
c-39 52 -108 101 -165 117 -19 6 -71 13 -115 16 -69 6 -86 4 -121 -14 -38 -19
-124 -102 -124 -120 0 -4 14 -21 30 -37 17 -16 30 -34 30 -41 0 -20 -193 -303
-284 -416 -285 -353 -1162 -1255 -1886 -1937 -178 -168 -421 -398 -540 -511
-119 -113 -299 -281 -400 -375 -102 -93 -248 -228 -325 -300 -427 -396 -776
-661 -1245 -944 -74 -45 -149 -97 -166 -116 -86 -96 -114 -215 -66 -282 49
-69 169 -113 303 -113 96 0 180 17 334 70 394 134 859 243 1230 289 173 21
425 38 425 28 0 -4 -46 -91 -102 -194 -169 -314 -192 -373 -192 -508 0 -78 3
-98 27 -146 45 -94 125 -156 250 -195 75 -23 139 -14 462 65 418 103 443 106
870 141 138 11 333 29 435 40 291 32 624 46 722 32 45 -6 85 -15 89 -19 4 -5
-19 -51 -52 -103 -122 -192 -179 -337 -179 -452 0 -126 129 -248 262 -248 48
0 178 30 268 62 189 67 425 118 541 118 54 0 69 -13 142 -111 65 -87 113 -134
218 -211 197 -145 379 -226 574 -254 l50 -7 -41 -17 c-22 -10 -105 -61 -183
-113 -79 -53 -158 -101 -177 -107 -19 -6 -34 -16 -34 -22 0 -6 8 -7 18 -3 47
18 140 36 262 50 74 9 243 40 375 70 426 96 544 114 928 140 402 27 532 62
640 171 64 64 82 107 82 199 0 63 -7 102 -33 182 -36 115 -41 189 -15 235 19
31 113 98 198 141 69 34 173 66 425 131 1044 269 1776 363 2375 305 144 -13
541 -79 549 -91 2 -2 17 -24 34 -49 46 -68 134 -144 189 -163 75 -26 238 -33
300 -12 71 24 126 75 165 154 30 61 33 74 33 162 0 87 -3 101 -32 160 -49 99
-82 125 -176 139 -43 6 -110 11 -150 11 -58 1 -68 3 -53 12 11 6 39 12 62 12
23 1 42 2 41 2 -1 1 -45 30 -97 64 -263 174 -865 909 -1170 1430 -40 69 -144
244 -230 390 -265 446 -506 875 -740 1315 -266 502 -336 628 -663 1195 -315
547 -373 668 -402 837 -6 40 -5 43 22 49 44 11 133 74 164 117 36 50 45 96 30
162 -10 46 -27 72 -119 180 -170 201 -267 326 -475 612 -107 148 -272 367
-366 487 -95 121 -202 262 -238 315 -84 122 -145 186 -207 218 -52 26 -49 26
-216 7 -77 -8 -94 8 -173 168 -66 135 -94 213 -142 392 -46 172 -83 264 -119
291 -80 61 -170 86 -237 65z"/>
        <path d="M33 2848 c-23 -30 -24 -41 -2 -21 12 12 20 25 17 28 -3 3 -10 0 -15
-7z"/>
        <path d="M12060 1406 c0 -3 9 -10 20 -16 11 -6 20 -8 20 -6 0 3 -9 10 -20 16
-11 6 -20 8 -20 6z"/>
    </g>
</svg>
